<svg xmlns="http://www.w3.org/2000/svg" viewBox="0 0 128 128">
  <rect width="128" height="128" rx="28" fill="#1C3E71"/>
  
  <g transform="translate(24, 34)">
    <path d="M5.3 54.3c-2.9 0-5.3-2.4-5.3-5.3V11.2C0 8.3 2.4 5.9 5.3 5.9s5.3 2.4 5.3 5.3v34.9l19.5-19.1c2-2 5.3-2 7.3 0s2 5.3 0 7.3L12.5 50.1c-1.9 1.9-4.5 2.8-7.2 2.8v1.4z" fill="#D33333"/>
    <path d="M74.7 5.7c2.9 0 5.3 2.4 5.3 5.3v37.8c0 2.9-2.4 5.3-5.3 5.3s-5.3-2.4-5.3-5.3V14L49.9 33.1c-2 2-5.3 2-7.3 0s-2-5.3 0-7.3L67.5 8.5c1.9-1.9 4.5-2.8 7.2-2.8z" fill="#D33333" opacity="0.1"/> <path d="M74.7 5.7c2.9 0 5.3 2.4 5.3 5.3v37.8c0 2.9-2.4 5.3-5.3 5.3s-5.3-2.4-5.3-5.3V14L5.3 54.3c-2.9 0-5.3-2.4-5.3-5.3L67.5 8.5c1.9-1.9 4.5-2.8 7.2-2.8z" fill="#5294D1"/>
  </g>
</svg>