<svg xmlns="http://www.w3.org/2000/svg" viewBox="0 0 128 128">
  <rect width="128" height="128" rx="28" fill="#FF4500"/>
  <path fill="#FFFFFF" d="M106.6 62.5c0-4.6-3.8-8.4-8.4-8.4-1.9 0-3.6.6-5 1.7-6.2-4.4-14.7-7.2-24.2-7.6l4.1-19.1 13.4 2.8c.2 3.1 2.8 5.6 5.9 5.6 3.3 0 5.9-2.7 5.9-5.9s-2.7-5.9-5.9-5.9c-2.6 0-4.7 1.6-5.5 3.9l-14.9-3.2c-.7-.1-1.3.3-1.5.9l-4.7 22c-9.7.3-18.4 3.1-24.8 7.6-1.4-1-3.1-1.7-5-1.7-4.6 0-8.4 3.8-8.4 8.4 0 3.3 1.9 6.1 4.7 7.5-.1.8-.2 1.7-.2 2.5 0 13.1 15.1 23.7 33.6 23.7s33.6-10.6 33.6-23.7c0-.8-.1-1.6-.2-2.4 2.7-1.4 4.6-4.2 4.6-7.5zm-66.2 8.4c0-3.3 2.7-5.9 5.9-5.9s5.9 2.7 5.9 5.9-2.7 5.9-5.9 5.9-5.9-2.6-5.9-5.9zm46.5 14.8c-3.3 3.3-9.5 5.1-13 5.1s-9.6-1.7-13-5.1c-.6-.6-.6-1.5 0-2.1.6-.6 1.5-.6 2.1 0 2.5 2.5 7.5 3.9 10.9 3.9s8.4-1.4 10.9-3.9c.6-.6 1.5-.6 2.1 0 .6.5.6 1.5 0 2.1zm-.9-8.9c-3.3 0-5.9-2.7-5.9-5.9s2.7-5.9 5.9-5.9 5.9 2.7 5.9 5.9-2.7 5.9-5.9 5.9z"/>
</svg>